<svg width="25" height="25" viewBox="0 0 25 25" fill="none" xmlns="http://www.w3.org/2000/svg">
    <path fill-rule="evenodd" clip-rule="evenodd" d="M5.70638 5.79049C5.90811 5.13488 6.51384 4.6875 7.19978 4.6875H9.375C9.80647 4.6875 10.1562 4.33772 10.1562 3.90625C10.1562 3.47478 9.80647 3.125 9.375 3.125H7.19978C5.82789 3.125 4.61643 4.01976 4.21297 5.33098L1.70069 13.4959C1.60908 13.7936 1.5625 14.1034 1.5625 14.4149V18.75C1.5625 20.4759 2.96161 21.875 4.6875 21.875H20.3125C22.0384 21.875 23.4375 20.4759 23.4375 18.75V14.4149C23.4375 14.1034 23.3909 13.7936 23.2993 13.4959L20.787 5.33098C20.3836 4.01976 19.1721 3.125 17.8002 3.125H15.625C15.1935 3.125 14.8438 3.47478 14.8438 3.90625C14.8438 4.33772 15.1935 4.6875 15.625 4.6875H17.8002C18.4862 4.6875 19.0919 5.13488 19.2936 5.79049L21.5985 13.2812H18.636C17.4524 13.2812 16.3703 13.95 15.8409 15.0087L15.574 15.5425C15.3094 16.0719 14.7683 16.4062 14.1765 16.4062H10.8235C10.2317 16.4062 9.69065 16.0719 9.42597 15.5425L9.15907 15.0087C8.62972 13.95 7.54765 13.2812 6.36398 13.2812H3.40153L5.70638 5.79049Z" fill="#F2528D"/>
    <path fill-rule="evenodd" clip-rule="evenodd" d="M12.5 2.34375C12.9315 2.34375 13.2812 2.69353 13.2812 3.125V9.83265L15.0726 8.04132C15.3777 7.73623 15.8723 7.73623 16.1774 8.04132C16.4825 8.34642 16.4825 8.84108 16.1774 9.14618L13.0524 12.2712C12.7473 12.5763 12.2527 12.5763 11.9476 12.2712L8.82257 9.14618C8.51748 8.84108 8.51748 8.34642 8.82257 8.04132C9.12767 7.73623 9.62233 7.73623 9.92743 8.04132L11.7188 9.83265V3.125C11.7188 2.69353 12.0685 2.34375 12.5 2.34375Z" fill="#F2528D"/>
</svg>
