<svg width="25" height="25" viewBox="0 0 25 25" fill="none" xmlns="http://www.w3.org/2000/svg">
    <path d="M16.406 8.59375C16.8375 8.59375 17.1873 8.94353 17.1873 9.375C17.1873 10.5418 16.6747 11.5899 15.865 12.3045C15.5416 12.59 15.0478 12.5592 14.7623 12.2357C14.4768 11.9122 14.5076 11.4185 14.8311 11.133C15.319 10.7024 15.6248 10.0749 15.6248 9.375C15.6248 8.94353 15.9745 8.59375 16.406 8.59375Z" fill="#F2528D"/>
    <path fill-rule="evenodd" clip-rule="evenodd" d="M12.5 2.34375C6.89086 2.34375 2.34375 6.89086 2.34375 12.5C2.34375 18.1091 6.89086 22.6562 12.5 22.6562C18.1091 22.6562 22.6562 18.1091 22.6562 12.5C22.6562 6.89086 18.1091 2.34375 12.5 2.34375ZM4.76552 16.2502C6.15829 19.1173 9.09834 21.0938 12.5 21.0938C13.1899 21.0938 13.8607 21.0125 14.5035 20.859C14.2046 20.0628 13.442 19.5312 12.5863 19.5312C12.0857 19.5312 11.6584 19.1693 11.5761 18.6755L11.5001 18.2195C11.4021 17.6316 11.761 17.0638 12.3341 16.9001L13.3641 16.6058C13.8091 16.4786 14.1804 16.1705 14.3874 15.7565L14.4254 15.6805C14.6818 15.1677 15.2059 14.8438 15.7793 14.8438C16.1807 14.8438 16.5657 15.0032 16.8496 15.2871L17.1875 15.625H17.842C18.7155 15.625 19.5042 16.109 19.9071 16.8601C20.6611 15.5819 21.0938 14.0915 21.0938 12.5C21.0938 8.02271 17.6698 4.34512 13.2975 3.94277C13.3437 4.21669 13.4863 4.46771 13.7029 4.64826L14.816 5.57587C15.2761 5.95927 15.3731 6.62787 15.0409 7.12617L14.5086 7.92465C14.2195 8.35831 13.7941 8.68323 13.2996 8.84805L13.1514 8.89743C12.4299 9.13795 12.1346 9.99872 12.5565 10.6316C12.9413 11.2088 12.7331 11.9928 12.1126 12.3031L9.375 13.6719L9.81604 14.7745C10.0083 15.2552 9.80003 15.8031 9.33691 16.0347C8.90656 16.2498 8.38391 16.1265 8.09522 15.7415L7.38768 14.7982C6.86499 14.1012 5.79161 14.198 5.40202 14.9772L4.76552 16.2502Z" fill="#F2528D"/>
</svg>
