<svg width="25" height="25" viewBox="0 0 25 25" fill="none" xmlns="http://www.w3.org/2000/svg">
    <path d="M13.2812 13.2812C13.2812 13.7127 12.9315 14.0625 12.5 14.0625C12.0685 14.0625 11.7188 13.7127 11.7188 13.2812C11.7188 12.8498 12.0685 12.5 12.5 12.5C12.9315 12.5 13.2812 12.8498 13.2812 13.2812Z" fill="#F2528D"/>
    <path d="M7.8125 16.4062C8.24397 16.4062 8.59375 16.0565 8.59375 15.625C8.59375 15.1935 8.24397 14.8438 7.8125 14.8438C7.38103 14.8438 7.03125 15.1935 7.03125 15.625C7.03125 16.0565 7.38103 16.4062 7.8125 16.4062Z" fill="#F2528D"/>
    <path d="M8.59375 17.9688C8.59375 18.4002 8.24397 18.75 7.8125 18.75C7.38103 18.75 7.03125 18.4002 7.03125 17.9688C7.03125 17.5373 7.38103 17.1875 7.8125 17.1875C8.24397 17.1875 8.59375 17.5373 8.59375 17.9688Z" fill="#F2528D"/>
    <path d="M10.1562 16.4062C10.5877 16.4062 10.9375 16.0565 10.9375 15.625C10.9375 15.1935 10.5877 14.8438 10.1562 14.8438C9.72478 14.8438 9.375 15.1935 9.375 15.625C9.375 16.0565 9.72478 16.4062 10.1562 16.4062Z" fill="#F2528D"/>
    <path d="M10.9375 17.9688C10.9375 18.4002 10.5877 18.75 10.1562 18.75C9.72478 18.75 9.375 18.4002 9.375 17.9688C9.375 17.5373 9.72478 17.1875 10.1562 17.1875C10.5877 17.1875 10.9375 17.5373 10.9375 17.9688Z" fill="#F2528D"/>
    <path d="M12.5 16.4062C12.9315 16.4062 13.2812 16.0565 13.2812 15.625C13.2812 15.1935 12.9315 14.8438 12.5 14.8438C12.0685 14.8438 11.7188 15.1935 11.7188 15.625C11.7188 16.0565 12.0685 16.4062 12.5 16.4062Z" fill="#F2528D"/>
    <path d="M13.2812 17.9688C13.2812 18.4002 12.9315 18.75 12.5 18.75C12.0685 18.75 11.7188 18.4002 11.7188 17.9688C11.7188 17.5373 12.0685 17.1875 12.5 17.1875C12.9315 17.1875 13.2812 17.5373 13.2812 17.9688Z" fill="#F2528D"/>
    <path d="M14.8438 16.4062C15.2752 16.4062 15.625 16.0565 15.625 15.625C15.625 15.1935 15.2752 14.8438 14.8438 14.8438C14.4123 14.8438 14.0625 15.1935 14.0625 15.625C14.0625 16.0565 14.4123 16.4062 14.8438 16.4062Z" fill="#F2528D"/>
    <path d="M15.625 17.9688C15.625 18.4002 15.2752 18.75 14.8438 18.75C14.4123 18.75 14.0625 18.4002 14.0625 17.9688C14.0625 17.5373 14.4123 17.1875 14.8438 17.1875C15.2752 17.1875 15.625 17.5373 15.625 17.9688Z" fill="#F2528D"/>
    <path d="M17.1875 16.4062C17.619 16.4062 17.9688 16.0565 17.9688 15.625C17.9688 15.1935 17.619 14.8438 17.1875 14.8438C16.756 14.8438 16.4062 15.1935 16.4062 15.625C16.4062 16.0565 16.756 16.4062 17.1875 16.4062Z" fill="#F2528D"/>
    <path d="M15.625 13.2812C15.625 13.7127 15.2752 14.0625 14.8438 14.0625C14.4123 14.0625 14.0625 13.7127 14.0625 13.2812C14.0625 12.8498 14.4123 12.5 14.8438 12.5C15.2752 12.5 15.625 12.8498 15.625 13.2812Z" fill="#F2528D"/>
    <path d="M17.1875 14.0625C17.619 14.0625 17.9688 13.7127 17.9688 13.2812C17.9688 12.8498 17.619 12.5 17.1875 12.5C16.756 12.5 16.4062 12.8498 16.4062 13.2812C16.4062 13.7127 16.756 14.0625 17.1875 14.0625Z" fill="#F2528D"/>
    <path fill-rule="evenodd" clip-rule="evenodd" d="M7.03125 2.34375C7.46272 2.34375 7.8125 2.69353 7.8125 3.125V4.6875H17.1875V3.125C17.1875 2.69353 17.5373 2.34375 17.9688 2.34375C18.4002 2.34375 18.75 2.69353 18.75 3.125V4.6875H19.5312C21.2571 4.6875 22.6562 6.08661 22.6562 7.8125V19.5312C22.6562 21.2571 21.2571 22.6562 19.5312 22.6562H5.46875C3.74286 22.6562 2.34375 21.2571 2.34375 19.5312V7.8125C2.34375 6.08661 3.74286 4.6875 5.46875 4.6875H6.25V3.125C6.25 2.69353 6.59978 2.34375 7.03125 2.34375ZM21.0938 11.7188C21.0938 10.8558 20.3942 10.1562 19.5312 10.1562H5.46875C4.60581 10.1562 3.90625 10.8558 3.90625 11.7188V19.5312C3.90625 20.3942 4.60581 21.0938 5.46875 21.0938H19.5312C20.3942 21.0938 21.0938 20.3942 21.0938 19.5312V11.7188Z" fill="#F2528D"/>
</svg>
